<svg width="100%" height="100%" xmlns="http://www.w3.org/2000/svg" xmlns:xlink="http://www.w3.org/1999/xlink">
                                    <g><rect id="qr-code-bg" width="100%" height="100%" fill="#ffffff"/></g>
                                    <g id="qr-code"><svg viewBox="0 0 41 41" width="100%" height="100%" xmlns:xlink="http://www.w3.org/1999/xlink" fill="#ffffff"><defs><rect fill="#000000" stroke="none" width="1" height="1" id="pattern"/><rect fill="#000000" stroke="none" width="1" height="1" id="pattern-eye-internal"/><rect fill="#000000" stroke="none" width="1" height="1" id="pattern-eye-external"/></defs><rect fill="#ffffff" stroke="none" width="100%" height="100%"/><use x="0" y="0" xlink:href="#pattern-eye-external"/><use x="1" y="0" xlink:href="#pattern-eye-external"/><use x="2" y="0" xlink:href="#pattern-eye-external"/><use x="3" y="0" xlink:href="#pattern-eye-external"/><use x="4" y="0" xlink:href="#pattern-eye-external"/><use x="5" y="0" xlink:href="#pattern-eye-external"/><use x="6" y="0" xlink:href="#pattern-eye-external"/><use x="8" y="0" xlink:href="#pattern"/><use x="9" y="0" xlink:href="#pattern"/><use x="10" y="0" xlink:href="#pattern"/><use x="12" y="0" xlink:href="#pattern"/><use x="13" y="0" xlink:href="#pattern"/><use x="14" y="0" xlink:href="#pattern"/><use x="15" y="0" xlink:href="#pattern"/><use x="17" y="0" xlink:href="#pattern"/><use x="19" y="0" xlink:href="#pattern"/><use x="20" y="0" xlink:href="#pattern"/><use x="21" y="0" xlink:href="#pattern"/><use x="23" y="0" xlink:href="#pattern"/><use x="30" y="0" xlink:href="#pattern"/><use x="31" y="0" xlink:href="#pattern"/><use x="32" y="0" xlink:href="#pattern"/><use x="34" y="0" xlink:href="#pattern-eye-external"/><use x="35" y="0" xlink:href="#pattern-eye-external"/><use x="36" y="0" xlink:href="#pattern-eye-external"/><use x="37" y="0" xlink:href="#pattern-eye-external"/><use x="38" y="0" xlink:href="#pattern-eye-external"/><use x="39" y="0" xlink:href="#pattern-eye-external"/><use x="40" y="0" xlink:href="#pattern-eye-external"/><use x="0" y="1" xlink:href="#pattern-eye-external"/><use x="6" y="1" xlink:href="#pattern-eye-external"/><use x="8" y="1" xlink:href="#pattern"/><use x="9" y="1" xlink:href="#pattern"/><use x="10" y="1" xlink:href="#pattern"/><use x="11" y="1" xlink:href="#pattern"/><use x="12" y="1" xlink:href="#pattern"/><use x="14" y="1" xlink:href="#pattern"/><use x="17" y="1" xlink:href="#pattern"/><use x="18" y="1" xlink:href="#pattern"/><use x="20" y="1" xlink:href="#pattern"/><use x="22" y="1" xlink:href="#pattern"/><use x="24" y="1" xlink:href="#pattern"/><use x="27" y="1" xlink:href="#pattern"/><use x="30" y="1" xlink:href="#pattern"/><use x="34" y="1" xlink:href="#pattern-eye-external"/><use x="40" y="1" xlink:href="#pattern-eye-external"/><use x="0" y="2" xlink:href="#pattern-eye-external"/><use x="2" y="2" xlink:href="#pattern-eye-internal"/><use x="3" y="2" xlink:href="#pattern-eye-internal"/><use x="4" y="2" xlink:href="#pattern-eye-internal"/><use x="6" y="2" xlink:href="#pattern-eye-external"/><use x="9" y="2" xlink:href="#pattern"/><use x="10" y="2" xlink:href="#pattern"/><use x="11" y="2" xlink:href="#pattern"/><use x="13" y="2" xlink:href="#pattern"/><use x="14" y="2" xlink:href="#pattern"/><use x="15" y="2" xlink:href="#pattern"/><use x="17" y="2" xlink:href="#pattern"/><use x="24" y="2" xlink:href="#pattern"/><use x="26" y="2" xlink:href="#pattern"/><use x="29" y="2" xlink:href="#pattern"/><use x="31" y="2" xlink:href="#pattern"/><use x="32" y="2" xlink:href="#pattern"/><use x="34" y="2" xlink:href="#pattern-eye-external"/><use x="36" y="2" xlink:href="#pattern-eye-internal"/><use x="37" y="2" xlink:href="#pattern-eye-internal"/><use x="38" y="2" xlink:href="#pattern-eye-internal"/><use x="40" y="2" xlink:href="#pattern-eye-external"/><use x="0" y="3" xlink:href="#pattern-eye-external"/><use x="2" y="3" xlink:href="#pattern-eye-internal"/><use x="3" y="3" xlink:href="#pattern-eye-internal"/><use x="4" y="3" xlink:href="#pattern-eye-internal"/><use x="6" y="3" xlink:href="#pattern-eye-external"/><use x="8" y="3" xlink:href="#pattern"/><use x="11" y="3" xlink:href="#pattern"/><use x="12" y="3" xlink:href="#pattern"/><use x="15" y="3" xlink:href="#pattern"/><use x="16" y="3" xlink:href="#pattern"/><use x="17" y="3" xlink:href="#pattern"/><use x="19" y="3" xlink:href="#pattern"/><use x="21" y="3" xlink:href="#pattern"/><use x="22" y="3" xlink:href="#pattern"/><use x="23" y="3" xlink:href="#pattern"/><use x="24" y="3" xlink:href="#pattern"/><use x="25" y="3" xlink:href="#pattern"/><use x="27" y="3" xlink:href="#pattern"/><use x="31" y="3" xlink:href="#pattern"/><use x="34" y="3" xlink:href="#pattern-eye-external"/><use x="36" y="3" xlink:href="#pattern-eye-internal"/><use x="37" y="3" xlink:href="#pattern-eye-internal"/><use x="38" y="3" xlink:href="#pattern-eye-internal"/><use x="40" y="3" xlink:href="#pattern-eye-external"/><use x="0" y="4" xlink:href="#pattern-eye-external"/><use x="2" y="4" xlink:href="#pattern-eye-internal"/><use x="3" y="4" xlink:href="#pattern-eye-internal"/><use x="4" y="4" xlink:href="#pattern-eye-internal"/><use x="6" y="4" xlink:href="#pattern-eye-external"/><use x="8" y="4" xlink:href="#pattern"/><use x="9" y="4" xlink:href="#pattern"/><use x="11" y="4" xlink:href="#pattern"/><use x="12" y="4" xlink:href="#pattern"/><use x="13" y="4" xlink:href="#pattern"/><use x="14" y="4" xlink:href="#pattern"/><use x="15" y="4" xlink:href="#pattern"/><use x="20" y="4" xlink:href="#pattern"/><use x="27" y="4" xlink:href="#pattern"/><use x="28" y="4" xlink:href="#pattern"/><use x="29" y="4" xlink:href="#pattern"/><use x="30" y="4" xlink:href="#pattern"/><use x="34" y="4" xlink:href="#pattern-eye-external"/><use x="36" y="4" xlink:href="#pattern-eye-internal"/><use x="37" y="4" xlink:href="#pattern-eye-internal"/><use x="38" y="4" xlink:href="#pattern-eye-internal"/><use x="40" y="4" xlink:href="#pattern-eye-external"/><use x="0" y="5" xlink:href="#pattern-eye-external"/><use x="6" y="5" xlink:href="#pattern-eye-external"/><use x="8" y="5" xlink:href="#pattern"/><use x="10" y="5" xlink:href="#pattern"/><use x="12" y="5" xlink:href="#pattern"/><use x="15" y="5" xlink:href="#pattern"/><use x="16" y="5" xlink:href="#pattern"/><use x="17" y="5" xlink:href="#pattern"/><use x="18" y="5" xlink:href="#pattern"/><use x="20" y="5" xlink:href="#pattern"/><use x="21" y="5" xlink:href="#pattern"/><use x="27" y="5" xlink:href="#pattern"/><use x="28" y="5" xlink:href="#pattern"/><use x="30" y="5" xlink:href="#pattern"/><use x="31" y="5" xlink:href="#pattern"/><use x="32" y="5" xlink:href="#pattern"/><use x="34" y="5" xlink:href="#pattern-eye-external"/><use x="40" y="5" xlink:href="#pattern-eye-external"/><use x="0" y="6" xlink:href="#pattern-eye-external"/><use x="1" y="6" xlink:href="#pattern-eye-external"/><use x="2" y="6" xlink:href="#pattern-eye-external"/><use x="3" y="6" xlink:href="#pattern-eye-external"/><use x="4" y="6" xlink:href="#pattern-eye-external"/><use x="5" y="6" xlink:href="#pattern-eye-external"/><use x="6" y="6" xlink:href="#pattern-eye-external"/><use x="8" y="6" xlink:href="#pattern"/><use x="10" y="6" xlink:href="#pattern"/><use x="12" y="6" xlink:href="#pattern"/><use x="14" y="6" xlink:href="#pattern"/><use x="16" y="6" xlink:href="#pattern"/><use x="18" y="6" xlink:href="#pattern"/><use x="20" y="6" xlink:href="#pattern"/><use x="22" y="6" xlink:href="#pattern"/><use x="24" y="6" xlink:href="#pattern"/><use x="26" y="6" xlink:href="#pattern"/><use x="28" y="6" xlink:href="#pattern"/><use x="30" y="6" xlink:href="#pattern"/><use x="32" y="6" xlink:href="#pattern"/><use x="34" y="6" xlink:href="#pattern-eye-external"/><use x="35" y="6" xlink:href="#pattern-eye-external"/><use x="36" y="6" xlink:href="#pattern-eye-external"/><use x="37" y="6" xlink:href="#pattern-eye-external"/><use x="38" y="6" xlink:href="#pattern-eye-external"/><use x="39" y="6" xlink:href="#pattern-eye-external"/><use x="40" y="6" xlink:href="#pattern-eye-external"/><use x="9" y="7" xlink:href="#pattern"/><use x="10" y="7" xlink:href="#pattern"/><use x="13" y="7" xlink:href="#pattern"/><use x="15" y="7" xlink:href="#pattern"/><use x="16" y="7" xlink:href="#pattern"/><use x="18" y="7" xlink:href="#pattern"/><use x="20" y="7" xlink:href="#pattern"/><use x="22" y="7" xlink:href="#pattern"/><use x="23" y="7" xlink:href="#pattern"/><use x="24" y="7" xlink:href="#pattern"/><use x="26" y="7" xlink:href="#pattern"/><use x="27" y="7" xlink:href="#pattern"/><use x="29" y="7" xlink:href="#pattern"/><use x="31" y="7" xlink:href="#pattern"/><use x="32" y="7" xlink:href="#pattern"/><use x="3" y="8" xlink:href="#pattern"/><use x="6" y="8" xlink:href="#pattern"/><use x="9" y="8" xlink:href="#pattern"/><use x="10" y="8" xlink:href="#pattern"/><use x="11" y="8" xlink:href="#pattern"/><use x="12" y="8" xlink:href="#pattern"/><use x="14" y="8" xlink:href="#pattern"/><use x="18" y="8" xlink:href="#pattern"/><use x="21" y="8" xlink:href="#pattern"/><use x="22" y="8" xlink:href="#pattern"/><use x="24" y="8" xlink:href="#pattern"/><use x="28" y="8" xlink:href="#pattern"/><use x="31" y="8" xlink:href="#pattern"/><use x="35" y="8" xlink:href="#pattern"/><use x="36" y="8" xlink:href="#pattern"/><use x="37" y="8" xlink:href="#pattern"/><use x="39" y="8" xlink:href="#pattern"/><use x="40" y="8" xlink:href="#pattern"/><use x="4" y="9" xlink:href="#pattern"/><use x="8" y="9" xlink:href="#pattern"/><use x="9" y="9" xlink:href="#pattern"/><use x="10" y="9" xlink:href="#pattern"/><use x="11" y="9" xlink:href="#pattern"/><use x="13" y="9" xlink:href="#pattern"/><use x="14" y="9" xlink:href="#pattern"/><use x="16" y="9" xlink:href="#pattern"/><use x="17" y="9" xlink:href="#pattern"/><use x="18" y="9" xlink:href="#pattern"/><use x="19" y="9" xlink:href="#pattern"/><use x="20" y="9" xlink:href="#pattern"/><use x="25" y="9" xlink:href="#pattern"/><use x="28" y="9" xlink:href="#pattern"/><use x="29" y="9" xlink:href="#pattern"/><use x="32" y="9" xlink:href="#pattern"/><use x="34" y="9" xlink:href="#pattern"/><use x="35" y="9" xlink:href="#pattern"/><use x="37" y="9" xlink:href="#pattern"/><use x="38" y="9" xlink:href="#pattern"/><use x="39" y="9" xlink:href="#pattern"/><use x="40" y="9" xlink:href="#pattern"/><use x="0" y="10" xlink:href="#pattern"/><use x="1" y="10" xlink:href="#pattern"/><use x="2" y="10" xlink:href="#pattern"/><use x="4" y="10" xlink:href="#pattern"/><use x="5" y="10" xlink:href="#pattern"/><use x="6" y="10" xlink:href="#pattern"/><use x="7" y="10" xlink:href="#pattern"/><use x="8" y="10" xlink:href="#pattern"/><use x="11" y="10" xlink:href="#pattern"/><use x="16" y="10" xlink:href="#pattern"/><use x="18" y="10" xlink:href="#pattern"/><use x="21" y="10" xlink:href="#pattern"/><use x="25" y="10" xlink:href="#pattern"/><use x="26" y="10" xlink:href="#pattern"/><use x="28" y="10" xlink:href="#pattern"/><use x="29" y="10" xlink:href="#pattern"/><use x="31" y="10" xlink:href="#pattern"/><use x="33" y="10" xlink:href="#pattern"/><use x="37" y="10" xlink:href="#pattern"/><use x="38" y="10" xlink:href="#pattern"/><use x="39" y="10" xlink:href="#pattern"/><use x="0" y="11" xlink:href="#pattern"/><use x="4" y="11" xlink:href="#pattern"/><use x="9" y="11" xlink:href="#pattern"/><use x="10" y="11" xlink:href="#pattern"/><use x="11" y="11" xlink:href="#pattern"/><use x="13" y="11" xlink:href="#pattern"/><use x="14" y="11" xlink:href="#pattern"/><use x="17" y="11" xlink:href="#pattern"/><use x="22" y="11" xlink:href="#pattern"/><use x="23" y="11" xlink:href="#pattern"/><use x="30" y="11" xlink:href="#pattern"/><use x="34" y="11" xlink:href="#pattern"/><use x="38" y="11" xlink:href="#pattern"/><use x="40" y="11" xlink:href="#pattern"/><use x="0" y="12" xlink:href="#pattern"/><use x="3" y="12" xlink:href="#pattern"/><use x="6" y="12" xlink:href="#pattern"/><use x="12" y="12" xlink:href="#pattern"/><use x="14" y="12" xlink:href="#pattern"/><use x="16" y="12" xlink:href="#pattern"/><use x="17" y="12" xlink:href="#pattern"/><use x="18" y="12" xlink:href="#pattern"/><use x="19" y="12" xlink:href="#pattern"/><use x="20" y="12" xlink:href="#pattern"/><use x="23" y="12" xlink:href="#pattern"/><use x="24" y="12" xlink:href="#pattern"/><use x="26" y="12" xlink:href="#pattern"/><use x="28" y="12" xlink:href="#pattern"/><use x="29" y="12" xlink:href="#pattern"/><use x="31" y="12" xlink:href="#pattern"/><use x="32" y="12" xlink:href="#pattern"/><use x="33" y="12" xlink:href="#pattern"/><use x="34" y="12" xlink:href="#pattern"/><use x="37" y="12" xlink:href="#pattern"/><use x="40" y="12" xlink:href="#pattern"/><use x="2" y="13" xlink:href="#pattern"/><use x="3" y="13" xlink:href="#pattern"/><use x="4" y="13" xlink:href="#pattern"/><use x="13" y="13" xlink:href="#pattern"/><use x="14" y="13" xlink:href="#pattern"/><use x="17" y="13" xlink:href="#pattern"/><use x="19" y="13" xlink:href="#pattern"/><use x="23" y="13" xlink:href="#pattern"/><use x="24" y="13" xlink:href="#pattern"/><use x="25" y="13" xlink:href="#pattern"/><use x="27" y="13" xlink:href="#pattern"/><use x="31" y="13" xlink:href="#pattern"/><use x="32" y="13" xlink:href="#pattern"/><use x="39" y="13" xlink:href="#pattern"/><use x="2" y="14" xlink:href="#pattern"/><use x="4" y="14" xlink:href="#pattern"/><use x="5" y="14" xlink:href="#pattern"/><use x="6" y="14" xlink:href="#pattern"/><use x="7" y="14" xlink:href="#pattern"/><use x="8" y="14" xlink:href="#pattern"/><use x="9" y="14" xlink:href="#pattern"/><use x="11" y="14" xlink:href="#pattern"/><use x="13" y="14" xlink:href="#pattern"/><use x="16" y="14" xlink:href="#pattern"/><use x="17" y="14" xlink:href="#pattern"/><use x="18" y="14" xlink:href="#pattern"/><use x="19" y="14" xlink:href="#pattern"/><use x="20" y="14" xlink:href="#pattern"/><use x="26" y="14" xlink:href="#pattern"/><use x="27" y="14" xlink:href="#pattern"/><use x="28" y="14" xlink:href="#pattern"/><use x="34" y="14" xlink:href="#pattern"/><use x="36" y="14" xlink:href="#pattern"/><use x="37" y="14" xlink:href="#pattern"/><use x="39" y="14" xlink:href="#pattern"/><use x="40" y="14" xlink:href="#pattern"/><use x="1" y="15" xlink:href="#pattern"/><use x="2" y="15" xlink:href="#pattern"/><use x="9" y="15" xlink:href="#pattern"/><use x="11" y="15" xlink:href="#pattern"/><use x="12" y="15" xlink:href="#pattern"/><use x="13" y="15" xlink:href="#pattern"/><use x="19" y="15" xlink:href="#pattern"/><use x="21" y="15" xlink:href="#pattern"/><use x="22" y="15" xlink:href="#pattern"/><use x="24" y="15" xlink:href="#pattern"/><use x="28" y="15" xlink:href="#pattern"/><use x="29" y="15" xlink:href="#pattern"/><use x="32" y="15" xlink:href="#pattern"/><use x="34" y="15" xlink:href="#pattern"/><use x="35" y="15" xlink:href="#pattern"/><use x="36" y="15" xlink:href="#pattern"/><use x="39" y="15" xlink:href="#pattern"/><use x="40" y="15" xlink:href="#pattern"/><use x="5" y="16" xlink:href="#pattern"/><use x="6" y="16" xlink:href="#pattern"/><use x="10" y="16" xlink:href="#pattern"/><use x="11" y="16" xlink:href="#pattern"/><use x="13" y="16" xlink:href="#pattern"/><use x="15" y="16" xlink:href="#pattern"/><use x="19" y="16" xlink:href="#pattern"/><use x="24" y="16" xlink:href="#pattern"/><use x="27" y="16" xlink:href="#pattern"/><use x="28" y="16" xlink:href="#pattern"/><use x="29" y="16" xlink:href="#pattern"/><use x="30" y="16" xlink:href="#pattern"/><use x="35" y="16" xlink:href="#pattern"/><use x="39" y="16" xlink:href="#pattern"/><use x="40" y="16" xlink:href="#pattern"/><use x="0" y="17" xlink:href="#pattern"/><use x="1" y="17" xlink:href="#pattern"/><use x="4" y="17" xlink:href="#pattern"/><use x="5" y="17" xlink:href="#pattern"/><use x="7" y="17" xlink:href="#pattern"/><use x="10" y="17" xlink:href="#pattern"/><use x="12" y="17" xlink:href="#pattern"/><use x="13" y="17" xlink:href="#pattern"/><use x="15" y="17" xlink:href="#pattern"/><use x="16" y="17" xlink:href="#pattern"/><use x="18" y="17" xlink:href="#pattern"/><use x="19" y="17" xlink:href="#pattern"/><use x="20" y="17" xlink:href="#pattern"/><use x="21" y="17" xlink:href="#pattern"/><use x="23" y="17" xlink:href="#pattern"/><use x="24" y="17" xlink:href="#pattern"/><use x="29" y="17" xlink:href="#pattern"/><use x="30" y="17" xlink:href="#pattern"/><use x="32" y="17" xlink:href="#pattern"/><use x="34" y="17" xlink:href="#pattern"/><use x="35" y="17" xlink:href="#pattern"/><use x="37" y="17" xlink:href="#pattern"/><use x="39" y="17" xlink:href="#pattern"/><use x="40" y="17" xlink:href="#pattern"/><use x="0" y="18" xlink:href="#pattern"/><use x="2" y="18" xlink:href="#pattern"/><use x="5" y="18" xlink:href="#pattern"/><use x="6" y="18" xlink:href="#pattern"/><use x="10" y="18" xlink:href="#pattern"/><use x="11" y="18" xlink:href="#pattern"/><use x="12" y="18" xlink:href="#pattern"/><use x="13" y="18" xlink:href="#pattern"/><use x="14" y="18" xlink:href="#pattern"/><use x="15" y="18" xlink:href="#pattern"/><use x="16" y="18" xlink:href="#pattern"/><use x="17" y="18" xlink:href="#pattern"/><use x="20" y="18" xlink:href="#pattern"/><use x="23" y="18" xlink:href="#pattern"/><use x="28" y="18" xlink:href="#pattern"/><use x="29" y="18" xlink:href="#pattern"/><use x="32" y="18" xlink:href="#pattern"/><use x="34" y="18" xlink:href="#pattern"/><use x="36" y="18" xlink:href="#pattern"/><use x="37" y="18" xlink:href="#pattern"/><use x="38" y="18" xlink:href="#pattern"/><use x="39" y="18" xlink:href="#pattern"/><use x="40" y="18" xlink:href="#pattern"/><use x="0" y="19" xlink:href="#pattern"/><use x="2" y="19" xlink:href="#pattern"/><use x="3" y="19" xlink:href="#pattern"/><use x="8" y="19" xlink:href="#pattern"/><use x="10" y="19" xlink:href="#pattern"/><use x="11" y="19" xlink:href="#pattern"/><use x="12" y="19" xlink:href="#pattern"/><use x="15" y="19" xlink:href="#pattern"/><use x="16" y="19" xlink:href="#pattern"/><use x="17" y="19" xlink:href="#pattern"/><use x="18" y="19" xlink:href="#pattern"/><use x="19" y="19" xlink:href="#pattern"/><use x="20" y="19" xlink:href="#pattern"/><use x="21" y="19" xlink:href="#pattern"/><use x="22" y="19" xlink:href="#pattern"/><use x="28" y="19" xlink:href="#pattern"/><use x="29" y="19" xlink:href="#pattern"/><use x="30" y="19" xlink:href="#pattern"/><use x="35" y="19" xlink:href="#pattern"/><use x="37" y="19" xlink:href="#pattern"/><use x="39" y="19" xlink:href="#pattern"/><use x="40" y="19" xlink:href="#pattern"/><use x="1" y="20" xlink:href="#pattern"/><use x="3" y="20" xlink:href="#pattern"/><use x="4" y="20" xlink:href="#pattern"/><use x="6" y="20" xlink:href="#pattern"/><use x="8" y="20" xlink:href="#pattern"/><use x="10" y="20" xlink:href="#pattern"/><use x="13" y="20" xlink:href="#pattern"/><use x="14" y="20" xlink:href="#pattern"/><use x="15" y="20" xlink:href="#pattern"/><use x="19" y="20" xlink:href="#pattern"/><use x="22" y="20" xlink:href="#pattern"/><use x="23" y="20" xlink:href="#pattern"/><use x="24" y="20" xlink:href="#pattern"/><use x="26" y="20" xlink:href="#pattern"/><use x="29" y="20" xlink:href="#pattern"/><use x="30" y="20" xlink:href="#pattern"/><use x="33" y="20" xlink:href="#pattern"/><use x="34" y="20" xlink:href="#pattern"/><use x="35" y="20" xlink:href="#pattern"/><use x="38" y="20" xlink:href="#pattern"/><use x="39" y="20" xlink:href="#pattern"/><use x="4" y="21" xlink:href="#pattern"/><use x="7" y="21" xlink:href="#pattern"/><use x="8" y="21" xlink:href="#pattern"/><use x="10" y="21" xlink:href="#pattern"/><use x="14" y="21" xlink:href="#pattern"/><use x="15" y="21" xlink:href="#pattern"/><use x="18" y="21" xlink:href="#pattern"/><use x="20" y="21" xlink:href="#pattern"/><use x="25" y="21" xlink:href="#pattern"/><use x="28" y="21" xlink:href="#pattern"/><use x="34" y="21" xlink:href="#pattern"/><use x="37" y="21" xlink:href="#pattern"/><use x="38" y="21" xlink:href="#pattern"/><use x="39" y="21" xlink:href="#pattern"/><use x="40" y="21" xlink:href="#pattern"/><use x="0" y="22" xlink:href="#pattern"/><use x="2" y="22" xlink:href="#pattern"/><use x="6" y="22" xlink:href="#pattern"/><use x="7" y="22" xlink:href="#pattern"/><use x="9" y="22" xlink:href="#pattern"/><use x="11" y="22" xlink:href="#pattern"/><use x="15" y="22" xlink:href="#pattern"/><use x="19" y="22" xlink:href="#pattern"/><use x="22" y="22" xlink:href="#pattern"/><use x="23" y="22" xlink:href="#pattern"/><use x="24" y="22" xlink:href="#pattern"/><use x="29" y="22" xlink:href="#pattern"/><use x="31" y="22" xlink:href="#pattern"/><use x="33" y="22" xlink:href="#pattern"/><use x="37" y="22" xlink:href="#pattern"/><use x="38" y="22" xlink:href="#pattern"/><use x="39" y="22" xlink:href="#pattern"/><use x="0" y="23" xlink:href="#pattern"/><use x="2" y="23" xlink:href="#pattern"/><use x="3" y="23" xlink:href="#pattern"/><use x="4" y="23" xlink:href="#pattern"/><use x="5" y="23" xlink:href="#pattern"/><use x="8" y="23" xlink:href="#pattern"/><use x="9" y="23" xlink:href="#pattern"/><use x="11" y="23" xlink:href="#pattern"/><use x="13" y="23" xlink:href="#pattern"/><use x="14" y="23" xlink:href="#pattern"/><use x="17" y="23" xlink:href="#pattern"/><use x="18" y="23" xlink:href="#pattern"/><use x="19" y="23" xlink:href="#pattern"/><use x="20" y="23" xlink:href="#pattern"/><use x="21" y="23" xlink:href="#pattern"/><use x="22" y="23" xlink:href="#pattern"/><use x="24" y="23" xlink:href="#pattern"/><use x="25" y="23" xlink:href="#pattern"/><use x="26" y="23" xlink:href="#pattern"/><use x="27" y="23" xlink:href="#pattern"/><use x="30" y="23" xlink:href="#pattern"/><use x="32" y="23" xlink:href="#pattern"/><use x="35" y="23" xlink:href="#pattern"/><use x="36" y="23" xlink:href="#pattern"/><use x="38" y="23" xlink:href="#pattern"/><use x="39" y="23" xlink:href="#pattern"/><use x="40" y="23" xlink:href="#pattern"/><use x="4" y="24" xlink:href="#pattern"/><use x="5" y="24" xlink:href="#pattern"/><use x="6" y="24" xlink:href="#pattern"/><use x="9" y="24" xlink:href="#pattern"/><use x="10" y="24" xlink:href="#pattern"/><use x="12" y="24" xlink:href="#pattern"/><use x="13" y="24" xlink:href="#pattern"/><use x="14" y="24" xlink:href="#pattern"/><use x="16" y="24" xlink:href="#pattern"/><use x="17" y="24" xlink:href="#pattern"/><use x="19" y="24" xlink:href="#pattern"/><use x="21" y="24" xlink:href="#pattern"/><use x="22" y="24" xlink:href="#pattern"/><use x="23" y="24" xlink:href="#pattern"/><use x="26" y="24" xlink:href="#pattern"/><use x="27" y="24" xlink:href="#pattern"/><use x="29" y="24" xlink:href="#pattern"/><use x="32" y="24" xlink:href="#pattern"/><use x="34" y="24" xlink:href="#pattern"/><use x="35" y="24" xlink:href="#pattern"/><use x="39" y="24" xlink:href="#pattern"/><use x="40" y="24" xlink:href="#pattern"/><use x="1" y="25" xlink:href="#pattern"/><use x="3" y="25" xlink:href="#pattern"/><use x="5" y="25" xlink:href="#pattern"/><use x="8" y="25" xlink:href="#pattern"/><use x="17" y="25" xlink:href="#pattern"/><use x="18" y="25" xlink:href="#pattern"/><use x="19" y="25" xlink:href="#pattern"/><use x="21" y="25" xlink:href="#pattern"/><use x="24" y="25" xlink:href="#pattern"/><use x="31" y="25" xlink:href="#pattern"/><use x="33" y="25" xlink:href="#pattern"/><use x="35" y="25" xlink:href="#pattern"/><use x="37" y="25" xlink:href="#pattern"/><use x="39" y="25" xlink:href="#pattern"/><use x="3" y="26" xlink:href="#pattern"/><use x="4" y="26" xlink:href="#pattern"/><use x="6" y="26" xlink:href="#pattern"/><use x="10" y="26" xlink:href="#pattern"/><use x="11" y="26" xlink:href="#pattern"/><use x="13" y="26" xlink:href="#pattern"/><use x="15" y="26" xlink:href="#pattern"/><use x="16" y="26" xlink:href="#pattern"/><use x="18" y="26" xlink:href="#pattern"/><use x="19" y="26" xlink:href="#pattern"/><use x="20" y="26" xlink:href="#pattern"/><use x="24" y="26" xlink:href="#pattern"/><use x="26" y="26" xlink:href="#pattern"/><use x="29" y="26" xlink:href="#pattern"/><use x="30" y="26" xlink:href="#pattern"/><use x="32" y="26" xlink:href="#pattern"/><use x="34" y="26" xlink:href="#pattern"/><use x="39" y="26" xlink:href="#pattern"/><use x="40" y="26" xlink:href="#pattern"/><use x="1" y="27" xlink:href="#pattern"/><use x="2" y="27" xlink:href="#pattern"/><use x="3" y="27" xlink:href="#pattern"/><use x="4" y="27" xlink:href="#pattern"/><use x="5" y="27" xlink:href="#pattern"/><use x="7" y="27" xlink:href="#pattern"/><use x="11" y="27" xlink:href="#pattern"/><use x="13" y="27" xlink:href="#pattern"/><use x="14" y="27" xlink:href="#pattern"/><use x="15" y="27" xlink:href="#pattern"/><use x="24" y="27" xlink:href="#pattern"/><use x="25" y="27" xlink:href="#pattern"/><use x="26" y="27" xlink:href="#pattern"/><use x="27" y="27" xlink:href="#pattern"/><use x="28" y="27" xlink:href="#pattern"/><use x="29" y="27" xlink:href="#pattern"/><use x="30" y="27" xlink:href="#pattern"/><use x="32" y="27" xlink:href="#pattern"/><use x="36" y="27" xlink:href="#pattern"/><use x="40" y="27" xlink:href="#pattern"/><use x="0" y="28" xlink:href="#pattern"/><use x="1" y="28" xlink:href="#pattern"/><use x="2" y="28" xlink:href="#pattern"/><use x="5" y="28" xlink:href="#pattern"/><use x="6" y="28" xlink:href="#pattern"/><use x="7" y="28" xlink:href="#pattern"/><use x="10" y="28" xlink:href="#pattern"/><use x="11" y="28" xlink:href="#pattern"/><use x="12" y="28" xlink:href="#pattern"/><use x="13" y="28" xlink:href="#pattern"/><use x="14" y="28" xlink:href="#pattern"/><use x="15" y="28" xlink:href="#pattern"/><use x="16" y="28" xlink:href="#pattern"/><use x="17" y="28" xlink:href="#pattern"/><use x="18" y="28" xlink:href="#pattern"/><use x="19" y="28" xlink:href="#pattern"/><use x="24" y="28" xlink:href="#pattern"/><use x="25" y="28" xlink:href="#pattern"/><use x="28" y="28" xlink:href="#pattern"/><use x="29" y="28" xlink:href="#pattern"/><use x="32" y="28" xlink:href="#pattern"/><use x="33" y="28" xlink:href="#pattern"/><use x="39" y="28" xlink:href="#pattern"/><use x="40" y="28" xlink:href="#pattern"/><use x="3" y="29" xlink:href="#pattern"/><use x="5" y="29" xlink:href="#pattern"/><use x="7" y="29" xlink:href="#pattern"/><use x="8" y="29" xlink:href="#pattern"/><use x="9" y="29" xlink:href="#pattern"/><use x="13" y="29" xlink:href="#pattern"/><use x="14" y="29" xlink:href="#pattern"/><use x="16" y="29" xlink:href="#pattern"/><use x="18" y="29" xlink:href="#pattern"/><use x="19" y="29" xlink:href="#pattern"/><use x="24" y="29" xlink:href="#pattern"/><use x="26" y="29" xlink:href="#pattern"/><use x="27" y="29" xlink:href="#pattern"/><use x="30" y="29" xlink:href="#pattern"/><use x="33" y="29" xlink:href="#pattern"/><use x="34" y="29" xlink:href="#pattern"/><use x="35" y="29" xlink:href="#pattern"/><use x="37" y="29" xlink:href="#pattern"/><use x="38" y="29" xlink:href="#pattern"/><use x="39" y="29" xlink:href="#pattern"/><use x="40" y="29" xlink:href="#pattern"/><use x="0" y="30" xlink:href="#pattern"/><use x="3" y="30" xlink:href="#pattern"/><use x="4" y="30" xlink:href="#pattern"/><use x="5" y="30" xlink:href="#pattern"/><use x="6" y="30" xlink:href="#pattern"/><use x="7" y="30" xlink:href="#pattern"/><use x="8" y="30" xlink:href="#pattern"/><use x="9" y="30" xlink:href="#pattern"/><use x="11" y="30" xlink:href="#pattern"/><use x="15" y="30" xlink:href="#pattern"/><use x="16" y="30" xlink:href="#pattern"/><use x="18" y="30" xlink:href="#pattern"/><use x="22" y="30" xlink:href="#pattern"/><use x="23" y="30" xlink:href="#pattern"/><use x="24" y="30" xlink:href="#pattern"/><use x="25" y="30" xlink:href="#pattern"/><use x="29" y="30" xlink:href="#pattern"/><use x="30" y="30" xlink:href="#pattern"/><use x="35" y="30" xlink:href="#pattern"/><use x="37" y="30" xlink:href="#pattern"/><use x="40" y="30" xlink:href="#pattern"/><use x="2" y="31" xlink:href="#pattern"/><use x="3" y="31" xlink:href="#pattern"/><use x="4" y="31" xlink:href="#pattern"/><use x="7" y="31" xlink:href="#pattern"/><use x="9" y="31" xlink:href="#pattern"/><use x="12" y="31" xlink:href="#pattern"/><use x="14" y="31" xlink:href="#pattern"/><use x="21" y="31" xlink:href="#pattern"/><use x="24" y="31" xlink:href="#pattern"/><use x="25" y="31" xlink:href="#pattern"/><use x="26" y="31" xlink:href="#pattern"/><use x="27" y="31" xlink:href="#pattern"/><use x="28" y="31" xlink:href="#pattern"/><use x="29" y="31" xlink:href="#pattern"/><use x="33" y="31" xlink:href="#pattern"/><use x="35" y="31" xlink:href="#pattern"/><use x="37" y="31" xlink:href="#pattern"/><use x="39" y="31" xlink:href="#pattern"/><use x="0" y="32" xlink:href="#pattern"/><use x="2" y="32" xlink:href="#pattern"/><use x="3" y="32" xlink:href="#pattern"/><use x="5" y="32" xlink:href="#pattern"/><use x="6" y="32" xlink:href="#pattern"/><use x="8" y="32" xlink:href="#pattern"/><use x="9" y="32" xlink:href="#pattern"/><use x="11" y="32" xlink:href="#pattern"/><use x="12" y="32" xlink:href="#pattern"/><use x="17" y="32" xlink:href="#pattern"/><use x="20" y="32" xlink:href="#pattern"/><use x="24" y="32" xlink:href="#pattern"/><use x="30" y="32" xlink:href="#pattern"/><use x="31" y="32" xlink:href="#pattern"/><use x="32" y="32" xlink:href="#pattern"/><use x="33" y="32" xlink:href="#pattern"/><use x="34" y="32" xlink:href="#pattern"/><use x="35" y="32" xlink:href="#pattern"/><use x="36" y="32" xlink:href="#pattern"/><use x="37" y="32" xlink:href="#pattern"/><use x="38" y="32" xlink:href="#pattern"/><use x="40" y="32" xlink:href="#pattern"/><use x="8" y="33" xlink:href="#pattern"/><use x="10" y="33" xlink:href="#pattern"/><use x="11" y="33" xlink:href="#pattern"/><use x="12" y="33" xlink:href="#pattern"/><use x="14" y="33" xlink:href="#pattern"/><use x="15" y="33" xlink:href="#pattern"/><use x="16" y="33" xlink:href="#pattern"/><use x="19" y="33" xlink:href="#pattern"/><use x="20" y="33" xlink:href="#pattern"/><use x="23" y="33" xlink:href="#pattern"/><use x="26" y="33" xlink:href="#pattern"/><use x="30" y="33" xlink:href="#pattern"/><use x="32" y="33" xlink:href="#pattern"/><use x="36" y="33" xlink:href="#pattern"/><use x="38" y="33" xlink:href="#pattern"/><use x="39" y="33" xlink:href="#pattern"/><use x="40" y="33" xlink:href="#pattern"/><use x="0" y="34" xlink:href="#pattern-eye-external"/><use x="1" y="34" xlink:href="#pattern-eye-external"/><use x="2" y="34" xlink:href="#pattern-eye-external"/><use x="3" y="34" xlink:href="#pattern-eye-external"/><use x="4" y="34" xlink:href="#pattern-eye-external"/><use x="5" y="34" xlink:href="#pattern-eye-external"/><use x="6" y="34" xlink:href="#pattern-eye-external"/><use x="9" y="34" xlink:href="#pattern"/><use x="10" y="34" xlink:href="#pattern"/><use x="16" y="34" xlink:href="#pattern"/><use x="18" y="34" xlink:href="#pattern"/><use x="21" y="34" xlink:href="#pattern"/><use x="22" y="34" xlink:href="#pattern"/><use x="25" y="34" xlink:href="#pattern"/><use x="26" y="34" xlink:href="#pattern"/><use x="29" y="34" xlink:href="#pattern"/><use x="32" y="34" xlink:href="#pattern"/><use x="34" y="34" xlink:href="#pattern"/><use x="36" y="34" xlink:href="#pattern"/><use x="39" y="34" xlink:href="#pattern"/><use x="0" y="35" xlink:href="#pattern-eye-external"/><use x="6" y="35" xlink:href="#pattern-eye-external"/><use x="12" y="35" xlink:href="#pattern"/><use x="13" y="35" xlink:href="#pattern"/><use x="14" y="35" xlink:href="#pattern"/><use x="15" y="35" xlink:href="#pattern"/><use x="17" y="35" xlink:href="#pattern"/><use x="20" y="35" xlink:href="#pattern"/><use x="21" y="35" xlink:href="#pattern"/><use x="27" y="35" xlink:href="#pattern"/><use x="29" y="35" xlink:href="#pattern"/><use x="31" y="35" xlink:href="#pattern"/><use x="32" y="35" xlink:href="#pattern"/><use x="36" y="35" xlink:href="#pattern"/><use x="37" y="35" xlink:href="#pattern"/><use x="38" y="35" xlink:href="#pattern"/><use x="40" y="35" xlink:href="#pattern"/><use x="0" y="36" xlink:href="#pattern-eye-external"/><use x="2" y="36" xlink:href="#pattern-eye-internal"/><use x="3" y="36" xlink:href="#pattern-eye-internal"/><use x="4" y="36" xlink:href="#pattern-eye-internal"/><use x="6" y="36" xlink:href="#pattern-eye-external"/><use x="10" y="36" xlink:href="#pattern"/><use x="11" y="36" xlink:href="#pattern"/><use x="13" y="36" xlink:href="#pattern"/><use x="19" y="36" xlink:href="#pattern"/><use x="20" y="36" xlink:href="#pattern"/><use x="21" y="36" xlink:href="#pattern"/><use x="22" y="36" xlink:href="#pattern"/><use x="23" y="36" xlink:href="#pattern"/><use x="24" y="36" xlink:href="#pattern"/><use x="25" y="36" xlink:href="#pattern"/><use x="28" y="36" xlink:href="#pattern"/><use x="32" y="36" xlink:href="#pattern"/><use x="33" y="36" xlink:href="#pattern"/><use x="34" y="36" xlink:href="#pattern"/><use x="35" y="36" xlink:href="#pattern"/><use x="36" y="36" xlink:href="#pattern"/><use x="40" y="36" xlink:href="#pattern"/><use x="0" y="37" xlink:href="#pattern-eye-external"/><use x="2" y="37" xlink:href="#pattern-eye-internal"/><use x="3" y="37" xlink:href="#pattern-eye-internal"/><use x="4" y="37" xlink:href="#pattern-eye-internal"/><use x="6" y="37" xlink:href="#pattern-eye-external"/><use x="8" y="37" xlink:href="#pattern"/><use x="9" y="37" xlink:href="#pattern"/><use x="12" y="37" xlink:href="#pattern"/><use x="14" y="37" xlink:href="#pattern"/><use x="15" y="37" xlink:href="#pattern"/><use x="17" y="37" xlink:href="#pattern"/><use x="18" y="37" xlink:href="#pattern"/><use x="19" y="37" xlink:href="#pattern"/><use x="20" y="37" xlink:href="#pattern"/><use x="22" y="37" xlink:href="#pattern"/><use x="23" y="37" xlink:href="#pattern"/><use x="24" y="37" xlink:href="#pattern"/><use x="25" y="37" xlink:href="#pattern"/><use x="26" y="37" xlink:href="#pattern"/><use x="29" y="37" xlink:href="#pattern"/><use x="32" y="37" xlink:href="#pattern"/><use x="33" y="37" xlink:href="#pattern"/><use x="34" y="37" xlink:href="#pattern"/><use x="36" y="37" xlink:href="#pattern"/><use x="37" y="37" xlink:href="#pattern"/><use x="38" y="37" xlink:href="#pattern"/><use x="0" y="38" xlink:href="#pattern-eye-external"/><use x="2" y="38" xlink:href="#pattern-eye-internal"/><use x="3" y="38" xlink:href="#pattern-eye-internal"/><use x="4" y="38" xlink:href="#pattern-eye-internal"/><use x="6" y="38" xlink:href="#pattern-eye-external"/><use x="9" y="38" xlink:href="#pattern"/><use x="10" y="38" xlink:href="#pattern"/><use x="11" y="38" xlink:href="#pattern"/><use x="12" y="38" xlink:href="#pattern"/><use x="17" y="38" xlink:href="#pattern"/><use x="18" y="38" xlink:href="#pattern"/><use x="19" y="38" xlink:href="#pattern"/><use x="22" y="38" xlink:href="#pattern"/><use x="24" y="38" xlink:href="#pattern"/><use x="26" y="38" xlink:href="#pattern"/><use x="28" y="38" xlink:href="#pattern"/><use x="30" y="38" xlink:href="#pattern"/><use x="31" y="38" xlink:href="#pattern"/><use x="32" y="38" xlink:href="#pattern"/><use x="36" y="38" xlink:href="#pattern"/><use x="37" y="38" xlink:href="#pattern"/><use x="38" y="38" xlink:href="#pattern"/><use x="40" y="38" xlink:href="#pattern"/><use x="0" y="39" xlink:href="#pattern-eye-external"/><use x="6" y="39" xlink:href="#pattern-eye-external"/><use x="11" y="39" xlink:href="#pattern"/><use x="12" y="39" xlink:href="#pattern"/><use x="13" y="39" xlink:href="#pattern"/><use x="14" y="39" xlink:href="#pattern"/><use x="18" y="39" xlink:href="#pattern"/><use x="19" y="39" xlink:href="#pattern"/><use x="22" y="39" xlink:href="#pattern"/><use x="23" y="39" xlink:href="#pattern"/><use x="24" y="39" xlink:href="#pattern"/><use x="25" y="39" xlink:href="#pattern"/><use x="26" y="39" xlink:href="#pattern"/><use x="27" y="39" xlink:href="#pattern"/><use x="28" y="39" xlink:href="#pattern"/><use x="29" y="39" xlink:href="#pattern"/><use x="30" y="39" xlink:href="#pattern"/><use x="32" y="39" xlink:href="#pattern"/><use x="35" y="39" xlink:href="#pattern"/><use x="39" y="39" xlink:href="#pattern"/><use x="0" y="40" xlink:href="#pattern-eye-external"/><use x="1" y="40" xlink:href="#pattern-eye-external"/><use x="2" y="40" xlink:href="#pattern-eye-external"/><use x="3" y="40" xlink:href="#pattern-eye-external"/><use x="4" y="40" xlink:href="#pattern-eye-external"/><use x="5" y="40" xlink:href="#pattern-eye-external"/><use x="6" y="40" xlink:href="#pattern-eye-external"/><use x="10" y="40" xlink:href="#pattern"/><use x="11" y="40" xlink:href="#pattern"/><use x="13" y="40" xlink:href="#pattern"/><use x="15" y="40" xlink:href="#pattern"/><use x="16" y="40" xlink:href="#pattern"/><use x="18" y="40" xlink:href="#pattern"/><use x="20" y="40" xlink:href="#pattern"/><use x="22" y="40" xlink:href="#pattern"/><use x="26" y="40" xlink:href="#pattern"/><use x="28" y="40" xlink:href="#pattern"/><use x="29" y="40" xlink:href="#pattern"/><use x="32" y="40" xlink:href="#pattern"/><use x="33" y="40" xlink:href="#pattern"/><use x="35" y="40" xlink:href="#pattern"/><use x="36" y="40" xlink:href="#pattern"/><use x="37" y="40" xlink:href="#pattern"/><use x="39" y="40" xlink:href="#pattern"/></svg></g>
                                </svg>